<?xml version="1.0" encoding="UTF-8" standalone="no"?>
<svg
   xmlns:dc="http://purl.org/dc/elements/1.1/"
   xmlns:cc="http://creativecommons.org/ns#"
   xmlns:rdf="http://www.w3.org/1999/02/22-rdf-syntax-ns#"
   xmlns:svg="http://www.w3.org/2000/svg"
   xmlns="http://www.w3.org/2000/svg"
   xmlns:sodipodi="http://sodipodi.sourceforge.net/DTD/sodipodi-0.dtd"
   xmlns:inkscape="http://www.inkscape.org/namespaces/inkscape"
   width="297mm"
   height="210mm"
   viewBox="0 0 297 210"
   version="1.1"
   id="svg8"
   inkscape:version="1.0.2 (e86c870879, 2021-01-15)"
   sodipodi:docname="tree.svg"
   inkscape:export-filename="C:\Users\Nedzib\Pictures\Logo\logo_propuesta.png"
   inkscape:export-xdpi="440"
   inkscape:export-ydpi="440">
  <defs
     id="defs2" />
  <sodipodi:namedview
     id="base"
     pagecolor="#ffffff"
     bordercolor="#666666"
     borderopacity="1.0"
     inkscape:pageopacity="0.0"
     inkscape:pageshadow="2"
     inkscape:zoom="0.35355339"
     inkscape:cx="549.83932"
     inkscape:cy="381.33292"
     inkscape:document-units="mm"
     inkscape:current-layer="layer1"
     inkscape:document-rotation="0"
     showgrid="false"
     inkscape:window-width="1680"
     inkscape:window-height="987"
     inkscape:window-x="-8"
     inkscape:window-y="-8"
     inkscape:window-maximized="1" />
  <metadata
     id="metadata5">
    <rdf:RDF>
      <cc:Work
         rdf:about="">
        <dc:format>image/svg+xml</dc:format>
        <dc:type
           rdf:resource="http://purl.org/dc/dcmitype/StillImage" />
        <dc:title />
      </cc:Work>
    </rdf:RDF>
  </metadata>
  <g
     inkscape:label="Capa 1"
     inkscape:groupmode="layer"
     id="layer1">
    <path
       id="path22"
       style="fill:#008080;stroke-width:0.402671"
       transform="scale(0.26458333)"
       d="m 584.70898,88.373047 c -1.27192,0.06501 -3.83659,0.610721 -9.44726,1.892578 -1.54447,0.352857 -2.93075,0.840028 -3.08008,1.082031 -0.14967,0.241814 -0.55666,0.330608 -0.9043,0.197266 -0.34733,-0.133342 -0.73031,-0.08104 -0.85156,0.115234 -0.12132,0.196309 -1.22873,0.482779 -2.46094,0.636719 -1.23216,0.15394 -2.33056,0.51239 -2.43945,0.796875 -0.10923,0.284485 -0.63814,0.62679 -1.17578,0.761719 -0.62321,0.156472 -0.97656,0.536239 -0.97656,1.044922 0,0.440613 -0.27024,0.796875 -0.60352,0.796875 -0.33184,0 -0.60547,0.180852 -0.60547,0.402343 0,0.221443 -0.36213,0.402344 -0.80468,0.402344 -0.44724,0 -0.80469,0.269934 -0.80469,0.605469 0,0.332183 -0.18975,0.603515 -0.41992,0.603516 -0.45336,0 -8.27064,5.844682 -8.66016,6.474612 -0.13039,0.21123 -0.38672,0.29209 -0.56836,0.17968 -0.34809,-0.21505 -2.83594,2.12874 -2.83594,2.67188 0,0.6239 -5.16096,2.83518 -6.56445,2.8125 -0.39946,-0.006 -0.81192,0.21407 -0.91797,0.49023 -0.10583,0.27617 -0.73141,0.46558 -1.38867,0.41993 -0.68111,-0.0471 -1.19531,0.11655 -1.19531,0.38085 0,0.30021 -1.0281,0.48948 -2.91797,0.53907 -1.60536,0.0421 -4.043,0.29983 -5.41406,0.57226 -1.72698,0.34315 -2.65432,0.36836 -3.01954,0.0801 -0.64244,-0.50727 -2.74533,-1.09621 -3.47656,-0.97265 -0.29329,0.0495 -0.77254,-0.10783 -1.0664,-0.35157 -0.29367,-0.24378 -1.36441,-0.48266 -2.37891,-0.52929 -1.06957,-0.0491 -1.93087,-0.30267 -2.04883,-0.60547 -0.13266,-0.3399 -0.82629,-0.48994 -1.99023,-0.42969 -0.98336,0.0509 -2.02733,-0.1026 -2.32032,-0.33984 -0.29291,-0.23721 -1.52994,-0.56424 -2.74804,-0.72657 -1.21803,-0.16229 -2.31027,-0.44458 -2.42774,-0.6289 -0.11754,-0.18433 -1.15939,-0.38939 -2.31445,-0.45508 -1.1551,-0.0657 -2.10077,-0.22676 -2.10156,-0.35742 -9.5e-4,-0.13062 -1.26883,-0.46331 -2.81836,-0.74024 -1.54938,-0.27692 -2.92538,-0.67833 -3.05664,-0.89062 -0.14892,-0.24053 -0.43288,-0.22354 -0.75391,0.043 -0.37228,0.30909 -0.65275,0.25967 -1.01562,-0.17774 -0.27591,-0.33256 -0.67101,-0.50042 -0.87696,-0.37304 -0.20598,0.12734 -0.59208,0.0511 -0.85937,-0.16993 -0.26684,-0.22102 -2.0257,-0.61791 -3.90821,-0.88086 -1.88246,-0.2629 -4.32745,-0.82935 -5.43164,-1.25976 -1.16628,-0.45462 -2.06356,-0.61746 -2.14062,-0.38672 -0.14514,0.43558 -1.14758,0.17828 -2.09375,-0.53906 -0.91801,-0.69596 -2.65947,-0.74736 -3.69922,-0.10743 -0.51197,0.3151 -2.43369,0.98819 -4.27148,1.4961 -2.20381,0.60905 -3.27696,1.09124 -3.15235,1.41601 0.10394,0.27085 -0.0228,0.48765 -0.2832,0.48047 -1.33811,-0.038 -1.88086,0.17303 -1.88086,0.73047 0,0.33914 -0.24681,0.71029 -0.54883,0.82617 -0.42777,0.16415 -0.55337,1.51976 -0.57226,6.13477 -0.0151,3.25837 -0.0608,6.10269 -0.10352,6.32031 -0.0419,0.21759 -0.0423,0.48692 0.0117,0.59766 0.28875,0.66531 0.22952,3.90381 -0.0801,4.30273 -0.21354,0.27481 -0.22627,0.78675 -0.0273,1.20703 0.19049,0.40172 0.32427,3.52184 0.29101,6.9336 -0.0472,5.03206 -0.17236,6.28808 -0.66797,6.65039 -0.336,0.24563 -0.7466,1.07959 -0.91211,1.85156 -0.27817,1.2967 -1.3955,2.8125 -2.07226,2.8125 -0.15799,0 -0.57991,0.26464 -0.93945,0.58984 -0.35944,0.32519 -1.18906,0.5933 -1.84375,0.59571 -0.65473,0.002 -3.30476,-0.01 -5.88868,-0.0254 -4.71443,-0.0295 -6.34902,0.20281 -6.84179,0.9707 -0.14589,0.22707 -0.61088,0.43971 -1.03321,0.4707 -0.42259,0.031 -1.35976,0.47591 -2.08203,0.99024 -1.00966,0.71901 -1.26103,1.14409 -1.08789,1.83398 0.12359,0.49348 0.10113,1.01908 -0.0488,1.16992 -0.14967,0.15081 -0.22491,1.08482 -0.16406,2.07422 0.0722,1.1783 -0.0534,1.79883 -0.36523,1.79883 -0.26495,0 -0.37013,0.27737 -0.23633,0.625 0.13757,0.35849 0.0701,0.52 -0.1582,0.37891 -0.39886,-0.2473 -0.54521,0.24771 -0.42774,1.46289 0.034,0.3603 -0.22904,0.76737 -0.58594,0.90429 -0.43517,0.16714 -0.56473,0.51464 -0.39257,1.05665 0.15496,0.48761 0.0742,0.80664 -0.20508,0.80664 -0.3035,0 -0.37188,0.41473 -0.19727,1.20898 0.16706,0.76004 0.10372,1.20703 -0.16992,1.20703 -0.23924,0 -0.43555,0.24843 -0.43555,0.55078 0,0.89462 -1.6082,2.66992 -2.41797,2.66992 -0.41189,0 -0.86311,0.36371 -1.0039,0.80665 -0.1406,0.44293 -0.59205,0.80468 -1.00391,0.80468 -0.41193,0 -1.26155,0.6088 -1.88672,1.35156 -0.62517,0.7428 -1.6351,1.66856 -2.24414,2.0586 -0.60903,0.39003 -1.10742,0.97122 -1.10742,1.29101 0,0.31953 -0.16744,0.47665 -0.37305,0.34961 -0.2056,-0.12703 -0.48912,0.13391 -0.63086,0.58008 -0.14173,0.44616 -0.43547,0.8125 -0.65234,0.8125 -0.57985,0 -2.35325,2.02049 -3,3.41797 -0.30841,0.66672 -0.71846,1.48423 -0.91016,1.81641 -0.88871,1.54144 -1.27933,2.45041 -1.27929,2.98047 0,0.31672 -0.22411,0.65087 -0.49805,0.74218 -0.5788,0.19291 -0.77619,11.49 -0.20703,11.8418 0.18444,0.11414 0.23492,0.52617 0.11133,0.91602 -0.12322,0.38982 -0.0641,1.8704 0.13281,3.28906 0.19691,1.41866 0.23648,3.50601 0.0859,4.64062 -0.33109,2.51006 0.40803,6.53658 1.32226,7.20508 0.36548,0.26725 0.66407,0.6087 0.66407,0.75977 0,0.15103 0.18478,0.49423 0.41015,0.76172 1.64992,1.95652 2.12513,2.63038 2.67774,3.79492 0.34507,0.72677 0.78795,1.32226 0.98437,1.32226 0.19616,0 0.35742,0.27134 0.35742,0.60352 0,0.33222 0.19086,0.60351 0.42383,0.60351 0.23282,0 0.61214,0.54459 0.84375,1.20899 0.23169,0.66441 0.54409,1.20703 0.69531,1.20703 0.15118,0 0.99581,1.0143 1.875,2.25391 0.87916,1.23962 1.82475,2.4962 2.10157,2.79101 0.27704,0.29484 0.50195,0.79818 0.50195,1.11914 0,0.69579 0.97306,1.58752 1.33594,1.22461 0.14022,-0.14037 0.4875,-0.0632 0.76953,0.16992 0.28233,0.2332 1.19437,0.55135 2.02734,0.70704 0.83293,0.15561 1.61465,0.44673 1.73828,0.64648 0.12359,0.19997 0.42241,0.24092 0.66211,0.0937 0.23962,-0.14812 0.63393,-0.0159 0.87696,0.29492 0.77767,0.99332 4.85262,2.31553 7.89257,2.56055 0.99663,0.0803 2.68265,0.61552 3.7461,1.18945 1.06371,0.57391 2.24149,1.04946 2.61718,1.05664 0.79783,0.0155 4.43514,1.24193 5.31055,1.79102 0.65518,0.41088 14.07839,0.56465 14.32617,0.16406 0.0835,-0.13497 0.95062,-0.21277 1.92774,-0.17187 1.35114,0.0563 2.0157,0.33267 2.77539,1.15234 0.54932,0.59273 1.20347,1.07812 1.45508,1.07812 0.25096,0 0.45703,0.24994 0.45703,0.55664 0,0.30675 0.43968,0.84547 0.97656,1.19727 0.53688,0.35176 1.07907,0.96201 1.20508,1.35547 0.12623,0.39347 0.77441,1.07856 1.43945,1.52148 0.66505,0.44294 1.21011,1.00718 1.21094,1.25391 6e-4,0.24654 0.86207,0.77209 1.91406,1.16797 1.59466,0.60012 4.56342,2.51275 5.33399,3.43554 0.29556,0.35407 1.7584,0.92659 2.14648,0.83985 0.18406,-0.0411 1.0806,0.47219 1.99219,1.14258 0.91158,0.67038 1.90505,1.2207 2.20703,1.2207 0.4684,0 3.68186,2.15709 4.63476,3.11133 0.34583,0.34639 1.2882,1.78408 3.89063,5.94726 0.96915,1.55028 1.86925,2.91079 2.00195,3.02149 0.42958,0.35902 1.65039,3.2292 1.65039,3.88086 0,0.43351 0.2196,0.55078 0.69336,0.36914 0.38049,-0.14646 0.5738,-0.14619 0.42969,-0.006 -0.37682,0.37674 1.85162,3.85814 3.29102,5.14062 0.67219,0.59895 1.22265,1.45137 1.22265,1.89258 0,0.44122 0.17043,0.80274 0.37891,0.80274 0.20825,0 1.06833,0.98781 1.91211,2.19726 0.84378,1.20945 1.94904,2.42168 2.45508,2.69336 0.50615,0.27167 0.82911,0.72839 0.71875,1.01563 -0.11037,0.28724 0.15609,0.71417 0.59179,0.94726 0.6663,0.35649 0.7685,0.75394 0.63867,2.50586 -0.085,1.14555 -0.35981,2.15123 -0.60937,2.23438 -0.2502,0.0832 -0.35166,0.31699 -0.22656,0.51953 0.12472,0.20254 0.0937,0.58585 -0.0703,0.85156 -0.27704,0.44832 -0.39412,1.06995 -0.6543,3.45703 -0.0552,0.50642 -0.28538,1.05101 -0.50977,1.20899 -0.46386,0.3267 -1.87804,5.12087 -1.85937,6.29687 0.008,0.42644 -0.25964,0.97605 -0.59375,1.2207 -0.36851,0.26914 -0.61886,1.11636 -0.63281,2.14454 -0.0113,0.93451 -0.1416,1.69921 -0.28711,1.69921 -0.14552,0 -0.60403,1.58558 -1.01758,3.52344 -0.41397,1.93785 -0.89425,3.67996 -1.06641,3.87305 -0.17197,0.19309 -0.22371,0.58237 -0.11523,0.86523 0.10885,0.28282 0.004,0.63506 -0.23243,0.78125 -0.23619,0.14623 -0.42968,0.69708 -0.42968,1.22461 4e-5,0.52753 -0.18974,1.07528 -0.42188,1.21875 -0.23206,0.14343 -0.38469,0.56171 -0.34179,0.92969 0.0446,0.36775 -0.0226,0.94125 -0.15039,1.27344 -0.48711,1.26647 -1.90954,6.30228 -2.16016,7.65039 -0.144,0.77514 -0.41518,1.60776 -0.60352,1.84961 -0.18822,0.24181 -0.24033,0.54283 -0.11523,0.66797 0.0227,0.0238 0.0273,0.0841 0.0273,0.14453 2.75702,2.58539 5.53455,5.14951 8.30664,7.71875 4.00317,3.70661 4.09209,3.74197 7.21485,7.01172 0.58049,-0.62174 1.15467,-1.24889 1.72265,-1.88672 0.079,-0.69754 0.17821,-1.38655 0.32032,-2.0586 10e-4,-0.0534 0.002,-0.1057 0.004,-0.1582 0.0567,-2.10396 0.25926,-4.06906 0.44922,-4.36719 0.18973,-0.29809 0.22109,-1.62652 0.0723,-2.95117 -0.15837,-1.39839 -0.10959,-2.60473 0.11718,-2.87891 0.21506,-0.25972 0.39253,-0.92678 0.39454,-1.48046 0.0227,-6.02705 0.42389,-12.14119 0.83007,-12.63086 0.34621,-0.41737 0.35809,-0.66241 0.043,-0.85743 -0.32088,-0.19725 -0.32195,-0.42585 0.0117,-0.82031 0.24907,-0.30028 0.49042,-1.59714 0.5332,-2.88281 0.0442,-1.28544 0.29819,-2.72614 0.56446,-3.20117 0.39307,-0.70086 0.36999,-0.95693 -0.11719,-1.36133 -0.48847,-0.40514 -0.50482,-0.61333 -0.0918,-1.11133 0.50226,-0.60509 0.56979,-0.95237 0.73242,-3.71094 0.0457,-0.77514 0.19478,-1.58906 0.33008,-1.81054 0.13569,-0.22145 0.26235,-1.21824 0.28125,-2.21485 0.0189,-0.99661 0.17903,-2.26664 0.35742,-2.82031 0.1784,-0.55367 0.38529,-2.26019 0.45899,-3.79297 0.0737,-1.53277 0.3254,-2.90483 0.55859,-3.04883 0.2332,-0.14403 0.38834,-0.61193 0.34571,-1.03906 -0.0427,-0.42715 0.18025,-1.37811 0.49414,-2.11328 0.45309,-1.06058 0.92385,-1.43136 2.2832,-1.79492 0.94227,-0.25202 1.71289,-0.65468 1.71289,-0.89649 0,-0.47292 2.23436,-1.40625 3.36523,-1.40625 0.59059,0 0.66307,-0.33255 0.51563,-2.3164 l -0.16992,-2.31446 -1.95313,-0.12695 c -2.57752,-0.16728 -3.51122,-1.0084 -3.19922,-2.88476 0.39935,-2.40071 0.58984,-3.3373 1.22461,-6.04883 0.33676,-1.43954 0.69464,-3.16177 0.79688,-3.82617 0.10242,-0.66442 0.30346,-1.66117 0.44531,-2.21485 0.14287,-0.55367 0.23866,-1.51092 0.21484,-2.12695 -0.0264,-0.61602 0.15988,-1.50252 0.41016,-1.9707 0.25058,-0.46817 0.5394,-1.50445 0.64258,-2.30274 0.10318,-0.79829 0.25839,-1.90336 0.3457,-2.45703 0.0869,-0.55367 0.22576,-1.46 0.30664,-2.01367 0.0809,-0.55367 0.37267,-1.6936 0.65039,-2.5332 0.2778,-0.83965 0.40174,-1.79682 0.27539,-2.12696 -0.12661,-0.33018 0.0265,-1.69873 0.33985,-3.04101 0.31521,-1.34228 0.47054,-2.69418 0.35156,-3.00391 -0.11906,-0.30977 0.0744,-0.67426 0.42969,-0.81055 0.35527,-0.13629 0.64648,-0.45862 0.64648,-0.71484 0,-0.25644 0.36173,-1.14232 0.80469,-1.96875 0.44296,-0.8262 0.80664,-1.85446 0.80664,-2.28516 0,-0.43066 0.16984,-0.88738 0.37695,-1.01562 0.2075,-0.12824 0.83337,-1.19713 1.39063,-2.375 0.55718,-1.17787 1.29185,-2.3739 1.63476,-2.6582 0.34243,-0.28438 0.62305,-0.76946 0.62305,-1.07618 0,-0.30671 0.48248,-1.44672 1.07031,-2.53515 0.99349,-1.83941 1.12775,-1.9428 1.91211,-1.45117 0.46413,0.29088 1.74715,0.65628 2.85157,0.8125 1.10442,0.15614 2.54295,0.56205 3.19726,0.90039 1.08374,0.56056 1.30766,0.5506 2.50781,-0.0957 1.04584,-0.56318 1.54805,-0.62042 2.43946,-0.2832 0.61742,0.23373 1.39411,0.43605 1.72656,0.45117 1.43868,0.065 3.82422,0.33827 3.82422,0.4375 0,0.1124 0.17913,0.13557 4.83203,0.60547 1.55025,0.15655 3.13123,0.4507 3.51172,0.6543 0.38056,0.2036 1.19647,0.34298 1.8125,0.30859 0.61602,-0.034 1.6327,0.14348 2.25976,0.39649 0.81464,0.32856 1.85325,0.34511 3.64063,0.0605 1.45576,-0.23259 3.62276,-0.26332 5.18359,-0.0762 1.56269,0.18814 2.95958,0.16679 3.34766,-0.0508 0.36661,-0.20515 1.37253,-0.25893 2.23437,-0.12109 0.9535,0.15243 1.56641,0.0897 1.56641,-0.15821 0,-0.22409 0.36848,-0.40625 0.81836,-0.40625 0.44988,0 0.92341,-0.27132 1.05078,-0.60351 0.12737,-0.33222 0.57568,-0.60547 0.99805,-0.60547 0.95777,0 2.11707,-0.64396 4.10351,-2.2793 0.85025,-0.69996 2.00993,-1.38914 2.57617,-1.53125 0.56614,-0.14211 1.32297,-0.61963 1.68165,-1.0625 0.35864,-0.4429 0.92401,-0.85864 1.25585,-0.92383 1.27801,-0.251 2.68413,-1.01668 4.42774,-2.41015 0.99658,-0.79647 2.00477,-1.45112 2.24023,-1.45313 0.23547,-0.002 0.96087,-0.56526 1.61133,-1.25195 0.65046,-0.68669 1.584,-1.40434 2.07617,-1.59571 0.4921,-0.19132 1.01137,-0.80763 1.15235,-1.36914 0.14097,-0.56149 0.47415,-1.02148 0.74023,-1.02148 0.26646,0 0.88772,-0.54261 1.37891,-1.20703 0.49126,-0.6644 1.05025,-1.20899 1.24414,-1.20899 0.19389,0 1.47494,-1.08719 2.8457,-2.41601 1.49148,-1.44588 2.84204,-2.41602 3.36524,-2.41602 0.48086,0 2.11495,-0.72546 3.63085,-1.61133 1.51597,-0.88584 2.88906,-1.60937 3.05079,-1.60937 0.6692,0 1.66903,-4.25501 1.63086,-6.95508 -0.0151,-1.02778 0.18406,-1.59809 0.61523,-1.76367 0.35528,-0.13629 0.53835,-0.5061 0.41211,-0.83398 -0.12435,-0.32372 0.15002,-1.11307 0.60742,-1.75586 0.45755,-0.64279 0.72412,-1.34461 0.5918,-1.5586 -0.13229,-0.21396 -0.0679,-0.71282 0.14453,-1.10937 0.74075,-1.38377 1.68777,-4.24598 1.47461,-4.45899 -0.1183,-0.11807 -0.0547,-0.41244 0.14258,-0.65429 0.44224,-0.54047 1.42285,-3.92215 1.28906,-4.44532 -0.054,-0.20919 0.0884,-0.75184 0.31445,-1.20703 1.68,-3.38486 1.68824,-3.62048 0.18164,-6.02929 -0.77333,-1.23628 -1.559,-2.24805 -1.74609,-2.24805 -0.18671,0 -0.45947,-0.54625 -0.60547,-1.21289 -0.42089,-1.91601 -1.37914,-3.55472 -2.23437,-3.82617 -0.43268,-0.13728 -0.78516,-0.51392 -0.78516,-0.83594 0,-0.32202 -0.45419,-0.79073 -1.00781,-1.04297 -0.55397,-0.25228 -1.00586,-0.58874 -1.00586,-0.74805 0,-0.46765 -4.34007,-3.60937 -4.98633,-3.60937 -0.32466,0 -1.10248,-0.42454 -1.72852,-0.94531 -1.75782,-1.46225 -2.93557,-1.96293 -3.99414,-1.69727 -0.55869,0.14022 -0.96875,0.0657 -0.96875,-0.17578 0,-0.23044 -0.45108,-0.62404 -1.00195,-0.875 -0.89972,-0.40991 -0.97652,-0.62405 -0.75391,-2.10547 0.13607,-0.907 0.6165,-2.32191 1.06641,-3.14258 0.65008,-1.185 0.71817,-1.61099 0.33398,-2.07422 -0.56443,-0.68009 -0.22866,-2.42335 0.59766,-3.10937 0.31068,-0.25769 0.56445,-0.76621 0.56445,-1.12891 0,-0.36272 0.49644,-1.19553 1.10547,-1.85156 0.60904,-0.65603 1.30209,-1.75389 1.53907,-2.43945 0.45502,-1.3275 0.45737,-4.68031 0.004,-6.11524 -0.1542,-0.48477 -0.0506,-1.22335 0.23438,-1.67969 0.4329,-0.69343 0.377,-0.99144 -0.36719,-1.99804 -0.48114,-0.65072 -0.99278,-1.66046 -1.13867,-2.24219 -0.14589,-0.58173 -0.622,-1.24784 -1.05664,-1.48047 -0.45748,-0.24469 -0.69523,-0.66938 -0.56446,-1.00976 0.12435,-0.32361 -0.0426,-0.69232 -0.37109,-0.81836 -0.32844,-0.12605 -0.59766,-0.54723 -0.59766,-0.93555 0,-0.38834 -0.47211,-1.40021 -1.04883,-2.25 -0.57661,-0.84979 -1.47406,-2.46111 -1.99609,-3.58008 -1.26153,-2.70374 -2.45767,-4.43593 -3.08594,-4.4707 -0.28195,-0.0155 -1.23333,-0.35425 -2.11328,-0.75195 -0.87995,-0.39773 -2.05763,-0.80087 -2.61719,-0.89649 -0.55956,-0.0956 -1.78581,-0.53044 -2.7246,-0.96484 -0.93888,-0.43441 -1.97512,-0.78907 -2.30469,-0.78907 -0.32958,0 -0.89737,-0.45558 -1.26172,-1.01171 -0.36435,-0.55613 -1.23857,-1.28365 -1.94141,-1.61719 -0.70284,-0.33351 -1.86851,-1.14796 -2.59179,-1.8086 -0.72329,-0.660615 -1.48549,-1.201168 -1.69336,-1.201168 -0.20788,0 -0.37895,-0.196196 -0.37891,-0.4375 0,-0.525079 -1.6278,-1.945946 -2.25195,-1.964843 -0.24265,-0.0076 -0.74604,-0.349079 -1.11719,-0.759766 -0.50657,-0.559763 -1.55501,-0.823481 -4.18945,-1.056641 -4.62085,-0.409021 -4.91966,-0.449655 -6.32032,-0.826171 -1.45406,-0.390849 -4.01821,-2.790018 -3.63867,-3.404297 0.36662,-0.593042 -0.5238,-1.617188 -1.40625,-1.617188 -0.38872,0 -0.90687,-0.240036 -1.15039,-0.533203 -0.21052,-0.253606 -0.50832,-0.386653 -1.27148,-0.347656 z M 543.2207,213.0293 c 0.72458,-0.0414 0.99538,0.1344 1.31641,0.64843 0.27817,0.4451 0.69339,0.8086 0.92383,0.8086 0.23055,0 1.37029,0.90633 2.53125,2.01367 1.2037,1.14826 1.84611,2.01367 1.49609,2.01367 -0.3719,0 -0.61328,0.36461 -0.61328,0.92578 0,0.50939 -0.15194,1.0982 -0.33789,1.3086 -0.18595,0.2104 -0.58821,1.01587 -0.89258,1.79101 -0.30463,0.77515 -1.07007,2.17797 -1.70117,3.11719 -0.63118,0.93921 -1.03388,1.89216 -0.89453,2.11719 0.13908,0.22507 -0.0303,0.51751 -0.375,0.65039 -0.34621,0.13285 -0.63086,0.48832 -0.63086,0.78906 0,0.3007 -0.36434,0.7419 -0.81055,0.98047 -0.44621,0.23879 -1.26319,1.15098 -1.8164,2.02734 -0.55321,0.87635 -1.26379,1.59375 -1.57813,1.59375 -0.67,0 -2.23633,-2.06432 -2.23633,-2.94726 0,-0.33491 -0.13681,-0.67032 -0.30273,-0.74414 -0.50506,-0.22447 -2.41679,-3.28903 -2.72071,-4.36133 -0.15682,-0.55367 -0.93836,-1.68708 -1.73437,-2.51758 -0.79582,-0.83051 -1.27366,-1.51467 -1.0625,-1.52148 0.2109,-0.007 0.0671,-0.19809 -0.32031,-0.42383 -0.38725,-0.22575 -0.70508,-0.7525 -0.70508,-1.17188 0,-0.41938 -0.36397,-1.01855 -0.80859,-1.33007 -0.77946,-0.54597 -0.72252,-0.65929 1.60937,-3.13282 2.61645,-2.77536 2.66976,-2.79235 7.45313,-2.39062 0.88584,0.0744 2.37844,0.0143 3.3164,-0.13477 0.36095,-0.0573 0.65298,-0.0956 0.89453,-0.10937 z m -21.35742,7.24609 h 0.002 c 0.8129,0.0456 1.73228,0.99142 1.36719,1.58203 -0.11338,0.18342 0.17498,0.43441 0.64258,0.55664 0.46734,0.12219 1.12111,0.7906 1.45117,1.48633 0.33033,0.69572 1.05188,1.75453 1.60547,2.35156 0.55378,0.59703 1.00781,1.27302 1.00781,1.50391 0,0.23112 0.17158,0.42187 0.38282,0.42187 0.21127,0 0.67503,0.61261 1.03125,1.36329 0.35603,0.75066 1.18131,1.84007 1.83203,2.41992 0.65083,0.57986 1.18164,1.30432 1.18164,1.60937 0,0.30501 0.42816,0.83509 0.95117,1.17774 0.52297,0.34269 1.06371,1.18306 1.20117,1.86914 0.1372,0.68609 0.66672,1.65096 1.17578,2.14258 1.09384,1.05638 1.90821,2.78575 1.90821,4.05273 0,0.49895 0.19726,1.10566 0.43945,1.34766 0.29972,0.30172 0.31129,0.67721 0.0352,1.19531 -0.58462,1.09247 -2.08593,5.64555 -2.08593,6.32617 0,0.31827 -0.34732,1.27551 -0.76953,2.12695 -1.07974,2.17583 -2.11748,5.88679 -2.33008,8.33203 -0.35792,4.11531 -1.23962,8.72894 -1.79688,9.4004 -0.23697,0.28452 -0.32136,0.79878 -0.18945,1.14257 0.13228,0.34379 0.019,0.9799 -0.25195,1.41407 h 0.002 c -0.63039,1.00918 -1.50781,1.01891 -1.50781,0.0176 0,-0.42448 -0.14904,-0.83244 -0.33008,-0.90625 -0.40059,-0.16323 -6.50431,-8.29506 -6.79492,-9.05273 -0.11377,-0.29635 -0.36699,-0.4413 -0.5625,-0.32031 -0.19578,0.12098 -0.2491,-0.0606 -0.11719,-0.4043 0.13191,-0.34375 0.0398,-0.625 -0.20508,-0.625 -0.24491,0 -0.44531,-0.45219 -0.44531,-1.00586 0,-0.55367 -0.18031,-1.00781 -0.40039,-1.00781 -0.41548,0 -1.86443,-2.87545 -2.08985,-4.14844 -0.0711,-0.39928 -0.25512,-0.72541 -0.41015,-0.72461 -0.15496,6.2e-4 -0.88353,-0.57841 -1.61914,-1.28711 -2.51981,-2.42751 -4.70775,-4.30903 -5.02735,-4.32226 -0.6167,-0.0261 -2.13084,-1.5302 -2.13086,-2.11719 0,-0.32602 -0.38055,-0.69279 -0.8457,-0.81445 -0.48109,-0.12582 -0.72925,-0.41288 -0.57422,-0.66407 0.25172,-0.40709 -5.15761,-3.23632 -6.1875,-3.23632 -0.22639,0 -1.33215,-0.54262 -2.45898,-1.20704 -1.12683,-0.66441 -2.58562,-1.20898 -3.24024,-1.20898 -0.65469,0 -1.18945,-0.16193 -1.18945,-0.35938 0,-0.19745 -0.43841,-0.46746 -0.97265,-0.60156 -0.53432,-0.1341 -1.42134,-0.74383 -1.97266,-1.35351 -0.55132,-0.60969 -1.82983,-2.01376 -2.8418,-3.1211 l -1.8418,-2.01367 1.70118,-0.41601 c 0.93483,-0.22912 2.40027,-0.72748 3.25781,-1.10743 0.85754,-0.37992 1.71957,-0.6914 1.91406,-0.6914 0.19389,0 0.35352,-0.18974 0.35352,-0.42188 0,-0.23217 0.49733,-0.64014 1.10742,-0.90625 0.61005,-0.26615 2.12222,-1.25407 3.35937,-2.19531 1.23716,-0.94125 2.55034,-1.71094 2.91797,-1.71094 0.36737,0 0.66797,-0.27133 0.66797,-0.60351 0,-0.71995 -0.13306,-0.68967 3.50391,-0.79297 1.59481,-0.0453 3.16188,-0.30029 3.48242,-0.56641 0.32088,-0.26615 1.24053,-0.543 2.04492,-0.61523 0.80444,-0.0722 1.57796,-0.24794 1.71875,-0.38867 0.1406,-0.14072 0.8152,-0.25847 1.49805,-0.26172 1.25102,-0.006 4.00974,-0.81637 4.52148,-1.32813 0.15194,-0.15182 0.60948,-0.27539 1.01563,-0.27539 0.40577,0 0.73828,-0.16845 0.73828,-0.375 0,-0.20655 0.37454,-0.49489 0.83398,-0.64062 0.10711,-0.0338 0.22059,-0.0471 0.33594,-0.041 z" />
  </g>
</svg>
